# Blender 3.2.0
# www.blender.org
mtllib terrain.mtl
o Landscape
v -15.000000 0.000000 15.000000
v -15.000000 0.000000 11.666667
v -15.000000 0.000000 8.333333
v -15.000000 0.000000 5.000000
v -15.000000 0.000000 1.666667
v -15.000000 0.000000 -1.666667
v -15.000000 0.000000 -5.000000
v -15.000000 0.000000 -8.333333
v -15.000000 0.000000 -11.666667
v -15.000000 0.000000 -15.000000
v -11.666667 0.000000 15.000000
v -11.666667 0.025498 11.666667
v -11.666667 1.742065 8.333333
v -11.666667 0.986399 5.000000
v -11.666667 1.844635 1.666667
v -11.666667 2.252103 -1.666667
v -11.666667 3.047642 -5.000000
v -11.666667 1.525586 -8.333333
v -11.666667 0.146554 -11.666667
v -11.666667 0.000000 -15.000000
v -8.333333 0.000000 15.000000
v -8.333333 0.323508 11.666667
v -8.333333 2.860965 8.333333
v -8.333333 6.426043 5.000000
v -8.333333 8.228645 1.666667
v -8.333333 4.576361 -1.666667
v -8.333333 2.939784 -5.000000
v -8.333333 1.534057 -8.333333
v -8.333333 1.250262 -11.666667
v -8.333333 0.000000 -15.000000
v -5.000000 0.000000 15.000000
v -5.000000 0.435061 11.666667
v -5.000000 3.190903 8.333333
v -5.000000 4.746548 5.000000
v -5.000000 10.000000 1.666667
v -5.000000 7.591413 -1.666667
v -5.000000 4.746548 -5.000000
v -5.000000 1.735566 -8.333333
v -5.000000 1.384559 -11.666667
v -5.000000 0.000000 -15.000000
v -1.666667 0.000000 15.000000
v -1.666667 0.176470 11.666667
v -1.666667 3.628285 8.333333
v -1.666667 8.828118 5.000000
v -1.666667 8.750539 1.666667
v -1.666667 7.743058 -1.666667
v -1.666667 1.066357 -5.000000
v -1.666667 1.814501 -8.333333
v -1.666667 1.781387 -11.666667
v -1.666667 0.000000 -15.000000
v 1.666667 0.000000 15.000000
v 1.666667 0.673553 11.666667
v 1.666667 2.482550 8.333333
v 1.666667 -0.579602 5.000000
v 1.666667 9.811738 1.666667
v 1.666667 8.131596 -1.666667
v 1.666667 7.773855 -5.000000
v 1.666667 3.632098 -8.333333
v 1.666667 1.764577 -11.666667
v 1.666667 0.000000 -15.000000
v 5.000000 0.000000 15.000000
v 5.000000 0.393755 11.666667
v 5.000000 3.618945 8.333333
v 5.000000 4.746548 5.000000
v 5.000000 10.000000 1.666667
v 5.000000 5.820520 -1.666667
v 5.000000 4.746548 -5.000000
v 5.000000 5.032990 -8.333333
v 5.000000 0.369958 -11.666667
v 5.000000 0.000000 -15.000000
v 8.333333 0.000000 15.000000
v 8.333333 1.238047 11.666667
v 8.333333 3.279102 8.333333
v 8.333333 3.881180 5.000000
v 8.333333 6.358759 1.666667
v 8.333333 4.747503 -1.666667
v 8.333333 0.584258 -5.000000
v 8.333333 1.296786 -8.333333
v 8.333333 1.320727 -11.666667
v 8.333333 0.000000 -15.000000
v 11.666667 0.000000 15.000000
v 11.666667 -0.057669 11.666667
v 11.666667 0.964454 8.333333
v 11.666667 3.123539 5.000000
v 11.666667 -1.000000 1.666667
v 11.666667 1.237265 -1.666667
v 11.666667 2.238597 -5.000000
v 11.666667 3.324833 -8.333333
v 11.666667 0.294569 -11.666667
v 11.666667 0.000000 -15.000000
v 15.000000 0.000000 15.000000
v 15.000000 0.000000 11.666667
v 15.000000 0.000000 8.333333
v 15.000000 0.000000 5.000000
v 15.000000 0.000000 1.666667
v 15.000000 0.000000 -1.666667
v 15.000000 0.000000 -5.000000
v 15.000000 0.000000 -8.333333
v 15.000000 0.000000 -11.666667
v 15.000000 0.000000 -15.000000
vn -0.0000 1.0000 0.0076
vn -0.0076 1.0000 -0.0000
vn -0.0068 0.8890 0.4578
vn -0.4632 0.8863 -0.0000
vn -0.4541 0.8689 -0.1970
vn -0.2838 0.9589 -0.0000
vn -0.2755 0.9309 0.2397
vn -0.4842 0.8750 -0.0000
vn -0.4814 0.8700 0.1063
vn -0.5598 0.8286 -0.0000
vn -0.5492 0.8129 0.1940
vn -0.6748 0.7380 -0.0000
vn -0.6394 0.6994 -0.3193
vn -0.4162 0.9093 -0.0000
vn -0.3895 0.8511 -0.3521
vn -0.0439 0.9990 -0.0000
vn -0.0439 0.9981 -0.0439
vn -0.0000 1.0000 -0.0000
vn -0.0000 0.9953 0.0966
vn -0.0890 0.9960 0.0076
vn -0.0710 0.7937 0.6042
vn -0.2860 0.8519 0.4387
vn -0.2235 0.6657 0.7120
vn -0.8467 0.5189 -0.1176
vn -0.8205 0.5028 0.2719
vn -0.8802 0.4596 0.1183
vn -0.7906 0.4128 -0.4523
vn -0.5691 0.8162 0.0998
vn -0.5306 0.7609 -0.3736
vn 0.0315 0.9722 0.2320
vn 0.0298 0.9210 -0.3884
vn -0.0023 0.9097 -0.4154
vn -0.0025 0.9964 -0.0848
vn -0.2926 0.8836 -0.3656
vn -0.2961 0.8943 -0.3354
vn -0.0000 0.9990 -0.0439
vn -0.0000 0.9916 0.1294
vn -0.0333 0.9948 0.0965
vn -0.0258 0.7705 0.6370
vn -0.0785 0.7932 0.6038
vn -0.0893 0.9026 0.4212
vn 0.3254 0.6458 0.6907
vn 0.2606 0.5172 0.8152
vn -0.4235 0.7969 0.4309
vn -0.3956 0.7444 -0.5379
vn -0.5206 0.5756 -0.6306
vn -0.5668 0.6266 -0.5348
vn -0.4375 0.8072 -0.3963
vn -0.3732 0.6885 -0.6219
vn -0.0556 0.9200 -0.3880
vn -0.0600 0.9927 -0.1045
vn -0.0401 0.9956 -0.0848
vn -0.0372 0.9229 -0.3833
vn -0.0000 0.9363 -0.3512
vn -0.0000 0.9986 0.0529
vn 0.0767 0.9887 0.1290
vn 0.0538 0.6936 0.7183
vn -0.1006 0.7668 0.6340
vn -0.0706 0.5383 0.8398
vn -0.7428 0.6067 0.2831
vn -0.7744 0.6325 -0.0147
vn 0.1969 0.5253 0.8278
vn 0.3377 0.9010 -0.2723
vn -0.0368 0.8100 -0.5853
vn -0.0203 0.4466 -0.8945
vn 0.6431 0.5825 -0.4971
vn 0.7329 0.6638 0.1490
vn -0.0176 0.7420 -0.6702
vn -0.0237 0.9997 -0.0099
vn -0.1176 0.9876 -0.1040
vn -0.1044 0.8771 -0.4688
vn -0.0000 0.9235 -0.3836
vn -0.0000 0.9802 0.1981
vn -0.1473 0.9877 0.0523
vn -0.1300 0.8715 0.4729
vn 0.2322 0.6757 0.6997
vn 0.2454 0.7139 -0.6558
vn 0.8359 0.2962 0.4620
vn 0.6529 0.2313 0.7212
vn -0.3033 0.9526 -0.0222
vn -0.2735 0.8589 -0.4329
vn -0.1109 0.9513 -0.2875
vn -0.1151 0.9877 -0.1060
vn -0.6685 0.3322 -0.6654
vn -0.7837 0.3895 -0.4839
vn -0.4697 0.8614 0.1933
vn -0.4296 0.7878 -0.4414
vn 0.0050 0.9999 -0.0099
vn 0.0045 0.8838 -0.4679
vn -0.0000 0.8820 -0.4713
vn -0.0000 0.9931 0.1173
vn 0.0820 0.9769 0.1974
vn 0.0602 0.7174 0.6941
vn -0.2870 0.8419 0.4569
vn -0.3073 0.9014 0.3049
vn -0.7620 0.4769 -0.4381
vn -0.6503 0.4070 0.6414
vn -0.0172 0.3054 0.9521
vn -0.0352 0.6231 -0.7813
vn 0.5264 0.7592 -0.3827
vn 0.5508 0.7944 -0.2560
vn 0.6702 0.7379 -0.0792
vn 0.6710 0.7388 0.0635
vn -0.2548 0.6063 -0.7533
vn -0.2374 0.5649 -0.7903
vn 0.3429 0.8195 -0.4591
vn 0.3840 0.9177 -0.1019
vn -0.0000 0.8838 -0.4679
vn -0.0000 0.9374 0.3482
vn -0.2439 0.9631 0.1138
vn -0.2111 0.8336 0.5104
vn 0.0731 0.7167 0.6935
vn 0.0998 0.9792 0.1769
vn 0.2388 0.9199 0.3112
vn 0.2040 0.7857 0.5840
vn 0.5051 0.4624 0.7287
vn 0.7012 0.6419 -0.3103
vn 0.1968 0.6113 -0.7665
vn 0.1972 0.6127 -0.7653
vn 0.7652 0.6128 -0.1974
vn 0.7737 0.6196 0.1324
vn 0.7450 0.6646 0.0571
vn 0.7462 0.6657 0.0048
vn -0.1636 0.5737 -0.8026
vn -0.2563 0.8986 -0.3561
vn -0.0000 0.9939 -0.1103
vn -0.0000 0.9999 -0.0173
vn 0.3424 0.8808 0.3271
vn 0.3484 0.8962 0.2748
vn 0.5095 0.7338 0.4493
vn 0.5035 0.7251 0.4697
vn 0.2183 0.9603 0.1735
vn 0.1415 0.6223 -0.7699
vn 0.8709 0.3945 0.2932
vn 0.8779 0.3976 0.2669
vn 0.6880 0.6534 -0.3158
vn 0.7101 0.6743 0.2026
vn -0.2963 0.5969 -0.7456
vn -0.4268 0.8599 0.2802
vn -0.5113 0.8404 0.1796
vn -0.4105 0.6747 -0.6134
vn 0.2942 0.9557 0.0069
vn 0.2932 0.9523 -0.0842
vn -0.0000 0.9297 -0.3684
vn -0.0173 0.9997 -0.0173
vn -0.0173 0.9999 -0.0000
vn 0.2666 0.9215 0.2826
vn 0.2779 0.9606 -0.0000
vn 0.6182 0.6597 0.4273
vn 0.6838 0.7297 -0.0000
vn -0.1853 0.6178 -0.7642
vn -0.2873 0.9578 -0.0000
vn 0.2945 0.7935 0.5326
vn 0.3480 0.9375 -0.0000
vn 0.5410 0.8055 0.2420
vn 0.5575 0.8302 -0.0000
vn 0.6881 0.6899 0.2248
vn 0.7062 0.7080 -0.0000
vn 0.0652 0.7384 -0.6712
vn 0.0880 0.9961 -0.0000
vn -0.0000 0.9961 -0.0880
s 0
f 11//1 12//1 1//1
f 12//2 2//2 1//2
f 12//3 13//3 2//3
f 13//4 3//4 2//4
f 13//5 14//5 3//5
f 14//6 4//6 3//6
f 14//7 15//7 4//7
f 15//8 5//8 4//8
f 15//9 16//9 5//9
f 16//10 6//10 5//10
f 16//11 17//11 6//11
f 17//12 7//12 6//12
f 17//13 18//13 7//13
f 18//14 8//14 7//14
f 18//15 19//15 8//15
f 19//16 9//16 8//16
f 19//17 20//17 9//17
f 20//18 10//18 9//18
f 21//19 22//19 11//19
f 22//20 12//20 11//20
f 22//21 23//21 12//21
f 23//22 13//22 12//22
f 23//23 24//23 13//23
f 24//24 14//24 13//24
f 24//25 25//25 14//25
f 25//26 15//26 14//26
f 25//27 26//27 15//27
f 26//28 16//28 15//28
f 26//29 27//29 16//29
f 27//30 17//30 16//30
f 27//31 28//31 17//31
f 28//32 18//32 17//32
f 28//33 29//33 18//33
f 29//34 19//34 18//34
f 29//35 30//35 19//35
f 30//36 20//36 19//36
f 31//37 32//37 21//37
f 32//38 22//38 21//38
f 32//39 33//39 22//39
f 33//40 23//40 22//40
f 33//41 34//41 23//41
f 34//42 24//42 23//42
f 34//43 35//43 24//43
f 35//44 25//44 24//44
f 35//45 36//45 25//45
f 36//46 26//46 25//46
f 36//47 37//47 26//47
f 37//48 27//48 26//48
f 37//49 38//49 27//49
f 38//50 28//50 27//50
f 38//51 39//51 28//51
f 39//52 29//52 28//52
f 39//53 40//53 29//53
f 40//54 30//54 29//54
f 41//55 42//55 31//55
f 42//56 32//56 31//56
f 42//57 43//57 32//57
f 43//58 33//58 32//58
f 43//59 44//59 33//59
f 44//60 34//60 33//60
f 44//61 45//61 34//61
f 45//62 35//62 34//62
f 45//63 46//63 35//63
f 46//64 36//64 35//64
f 46//65 47//65 36//65
f 47//66 37//66 36//66
f 47//67 48//67 37//67
f 48//68 38//68 37//68
f 48//69 49//69 38//69
f 49//70 39//70 38//70
f 49//71 50//71 39//71
f 50//72 40//72 39//72
f 51//73 52//73 41//73
f 52//74 42//74 41//74
f 52//75 53//75 42//75
f 53//76 43//76 42//76
f 53//77 54//77 43//77
f 54//78 44//78 43//78
f 54//79 55//79 44//79
f 55//80 45//80 44//80
f 55//81 56//81 45//81
f 56//82 46//82 45//82
f 56//83 57//83 46//83
f 57//84 47//84 46//84
f 57//85 58//85 47//85
f 58//86 48//86 47//86
f 58//87 59//87 48//87
f 59//88 49//88 48//88
f 59//89 60//89 49//89
f 60//90 50//90 49//90
f 61//91 62//91 51//91
f 62//92 52//92 51//92
f 62//93 63//93 52//93
f 63//94 53//94 52//94
f 63//95 64//95 53//95
f 64//96 54//96 53//96
f 64//97 65//97 54//97
f 65//98 55//98 54//98
f 65//99 66//99 55//99
f 66//100 56//100 55//100
f 66//101 67//101 56//101
f 67//102 57//102 56//102
f 67//103 68//103 57//103
f 68//104 58//104 57//104
f 68//105 69//105 58//105
f 69//106 59//106 58//106
f 69//107 70//107 59//107
f 70//108 60//108 59//108
f 71//109 72//109 61//109
f 72//110 62//110 61//110
f 72//111 73//111 62//111
f 73//112 63//112 62//112
f 73//113 74//113 63//113
f 74//114 64//114 63//114
f 74//115 75//115 64//115
f 75//116 65//116 64//116
f 75//117 76//117 65//117
f 76//118 66//118 65//118
f 76//119 77//119 66//119
f 77//120 67//120 66//120
f 77//121 78//121 67//121
f 78//122 68//122 67//122
f 78//123 79//123 68//123
f 79//124 69//124 68//124
f 79//125 80//125 69//125
f 80//126 70//126 69//126
f 81//127 82//127 71//127
f 82//128 72//128 71//128
f 82//129 83//129 72//129
f 83//130 73//130 72//130
f 83//131 84//131 73//131
f 84//132 74//132 73//132
f 84//133 85//133 74//133
f 85//134 75//134 74//134
f 85//135 86//135 75//135
f 86//136 76//136 75//136
f 86//137 87//137 76//137
f 87//138 77//138 76//138
f 87//139 88//139 77//139
f 88//140 78//140 77//140
f 88//141 89//141 78//141
f 89//142 79//142 78//142
f 89//143 90//143 79//143
f 90//144 80//144 79//144
f 91//18 92//18 81//18
f 92//145 82//145 81//145
f 92//146 93//146 82//146
f 93//147 83//147 82//147
f 93//148 94//148 83//148
f 94//149 84//149 83//149
f 94//150 95//150 84//150
f 95//151 85//151 84//151
f 95//152 96//152 85//152
f 96//153 86//153 85//153
f 96//154 97//154 86//154
f 97//155 87//155 86//155
f 97//156 98//156 87//156
f 98//157 88//157 87//157
f 98//158 99//158 88//158
f 99//159 89//159 88//159
f 99//160 100//160 89//160
f 100//161 90//161 89//161
